# Blender 5.1.1
# www.blender.org
mtllib Vidrios.mtl
o Vidrio
v 4.769592 0.506222 -0.393131
v 4.769592 5.568006 -0.393131
v 4.769592 0.506222 -5.454916
v 4.769592 5.568006 -5.454916
vn -1.0000 -0.0000 -0.0000
vt 0.000000 0.000000
vt 1.000000 1.000000
vt 0.000000 1.000000
vt 1.000000 0.000000
s 0
usemtl Vidrio
f 2/1/1 3/2/1 1/3/1
f 2/1/1 4/4/1 3/2/1
o Vidrio.001
v 4.769592 0.506222 -6.339036
v 4.769592 5.568006 -6.339036
v 4.769592 0.506222 -11.400821
v 4.769592 5.568006 -11.400821
vn -1.0000 -0.0000 -0.0000
vt 1.000000 0.000000
vt 0.000000 1.000000
vt 0.000000 0.000000
vt 1.000000 1.000000
s 0
usemtl Vidrio
f 6/5/2 7/6/2 5/7/2
f 6/5/2 8/8/2 7/6/2
o Vidrio.002
v 4.769592 0.506222 -12.412984
v 4.769592 5.568006 -12.412984
v 4.769592 0.506222 -17.474768
v 4.769592 5.568006 -17.474768
vn -1.0000 -0.0000 -0.0000
vt 1.000000 0.000000
vt 0.000000 1.000000
vt 0.000000 0.000000
vt 1.000000 1.000000
s 0
usemtl Vidrio
f 10/9/3 11/10/3 9/11/3
f 10/9/3 12/12/3 11/10/3
o Vidrio.003
v 4.769592 0.506222 -22.005386
v 4.769592 5.568006 -22.005386
v 4.769592 0.506222 -18.295013
v 4.769592 5.568006 -18.295013
vn -1.0000 -0.0000 -0.0000
vt 1.000000 0.000000
vt 0.000000 1.000000
vt 0.000000 0.000000
vt 1.000000 1.000000
s 0
usemtl Vidrio
f 14/13/4 13/15/4 15/14/4
f 14/13/4 15/14/4 16/16/4
o Vidrio.004
v 4.769592 0.506222 11.735271
v 4.769592 5.568006 11.735271
v 4.769592 0.506222 6.673487
v 4.769592 5.568006 6.673487
vn -1.0000 -0.0000 -0.0000
vt 0.000000 0.000000
vt 1.000000 1.000000
vt 0.000000 1.000000
vt 1.000000 0.000000
s 0
usemtl Vidrio
f 18/17/5 19/18/5 17/19/5
f 18/17/5 20/20/5 19/18/5
